<svg xmlns="http://www.w3.org/2000/svg" viewBox="0 0 16 16">
  <g fill="none" fill-rule="evenodd">
    <path fill="#FFFFFF" fill-rule="nonzero" d="M0,2.80529639 C0,1.25597398 1.25549316,0 2.80529639,0 L13.1947036,0 C14.744026,0 16,1.25549316 16,2.80529639 L16,13.1947036 C16,14.744026 14.7445068,16 13.1947036,16 L2.80529639,16 C1.25597398,16 0,14.7445068 0,13.1947036 L0,2.80529639 Z"/>
    <path fill="#000000" fill-rule="nonzero" d="M1,2.80529639 L1,13.1947036 C1,14.1920295 1.80806614,15 2.80529639,15 L13.1947036,15 C14.1920295,15 15,14.1919339 15,13.1947036 L15,2.80529639 C15,1.80797048 14.1919339,1 13.1947036,1 L2.80529639,1 C1.80797048,1 1,1.80806614 1,2.80529639 Z"/>
    <polygon fill="#FFFFFF" points="15 12 15 13 1 13 1 12"/>
    <rect width="8" height="1" x="3" y="3" fill="#FFFFFF"/>
    <rect width="8" height="1" x="3" y="7" fill="#FFFFFF"/>
    <rect width="10" height="1" x="3" y="9" fill="#FFFFFF"/>
    <rect width="6" height="1" x="3" y="5" fill="#FFFFFF"/>
  </g>
</svg>
