<svg xmlns="http://www.w3.org/2000/svg" viewBox="0 0 30 30">
  <g fill="none" fill-rule="evenodd">
    <path fill="#FFFFFF" fill-rule="nonzero" d="M0,5.99884495 C0,2.68577437 2.68870147,0 5.99884495,0 L24.001155,0 C27.3142256,0 30,2.68870147 30,5.99884495 L30,24.001155 C30,27.3142256 27.3112985,30 24.001155,30 L5.99884495,30 C2.68577437,30 0,27.3112985 0,24.001155 L0,5.99884495 Z"/>
    <path fill="#000000" fill-rule="nonzero" d="M1,5.99884495 L1,24.001155 C1,26.7601001 3.23914517,29 5.99884495,29 L24.001155,29 C26.7601001,29 29,26.7608548 29,24.001155 L29,5.99884495 C29,3.23989986 26.7608548,1 24.001155,1 L5.99884495,1 C3.23989986,1 1,3.23914517 1,5.99884495 Z"/>
    <polygon fill="#FFFFFF" points="29 25 29 26 1 26 1 25"/>
    <polygon fill="#FFFFFF" points="29 21 29 22 1 22 1 21"/>
    <rect width="20" height="2" x="5" y="14" fill="#FFFFFF"/>
    <rect width="16" height="2" x="5" y="11" fill="#FFFFFF"/>
    <rect width="12" height="2" x="5" y="8" fill="#FFFFFF"/>
    <rect width="16" height="2" x="5" y="5" fill="#FFFFFF"/>
  </g>
</svg>
