<svg xmlns="http://www.w3.org/2000/svg" viewBox="0 0 30 30">
  <g fill="none" fill-rule="evenodd">
    <path fill="#FFFFFF" fill-rule="nonzero" d="M0,5.25993073 C0,2.3549512 2.35404968,0 5.25993073,0 L24.7400693,0 C27.6450488,0 30,2.35404968 30,5.25993073 L30,24.7400693 C30,27.6450488 27.6459503,30 24.7400693,30 L5.25993073,30 C2.3549512,30 0,27.6459503 0,24.7400693 L0,5.25993073 Z"/>
    <path fill="#000000" fill-rule="nonzero" d="M1,5.25993073 L1,24.7400693 C1,27.0933277 2.90689805,29 5.25993073,29 L24.7400693,29 C27.0933277,29 29,27.0931019 29,24.7400693 L29,5.25993073 C29,2.9066723 27.0931019,1 24.7400693,1 L5.25993073,1 C2.9066723,1 1,2.90689805 1,5.25993073 Z"/>
    <polygon fill="#FFFFFF" points="29 25 29 26 1 26 1 25"/>
    <polygon fill="#FFFFFF" points="29 21 29 22 1 22 1 21"/>
    <rect width="20" height="2" x="5" y="14" fill="#FFFFFF"/>
    <rect width="16" height="2" x="5" y="11" fill="#FFFFFF"/>
    <rect width="12" height="2" x="5" y="8" fill="#FFFFFF"/>
    <rect width="16" height="2" x="5" y="5" fill="#FFFFFF"/>
  </g>
</svg>
