<svg xmlns="http://www.w3.org/2000/svg" viewBox="0 0 1024 1024">
  <g fill="none" fill-rule="evenodd">
    <path fill="#000000" d="M99.9913987,0 L924.008601,0 C979.232326,0 1024,44.7617237 1024,99.9913987 L1024,924.008601 C1024,979.232326 979.238276,1024 924.008601,1024 L99.9913987,1024 C44.7676741,1024 0,979.238276 0,924.008601 L0,99.9913987 C0,44.7676741 44.7617237,0 99.9913987,0 Z"/>
    <rect width="640" height="64" x="128" y="128" fill="#FFFFFF"/>
    <rect width="512" height="64" x="128" y="256" fill="#FFFFFF"/>
    <polygon fill="#FFFFFF" points="1024 764 1024 796 0 796 0 764"/>
    <polygon fill="#FFFFFF" points="1024 896 1024 928 0 928 0 896"/>
    <rect width="640" height="64" x="128" y="384" fill="#FFFFFF"/>
    <rect width="764" height="64" x="128" y="512" fill="#E3C399"/>
    <rect width="764" height="64" x="128" y="512" fill="#DDE9D2"/>
    <rect width="764" height="64" x="128" y="512" fill="#FFFFFF"/>
  </g>
</svg>
