<svg xmlns="http://www.w3.org/2000/svg" viewBox="0 0 1024 1024">
  <path fill="#000000" fill-rule="evenodd" d="M99.9913987,0 L924.008601,0 C979.232326,0 1024,44.7617237 1024,99.9913987 L1024,924.008601 C1024,979.232326 979.238276,1024 924.008601,1024 L99.9913987,1024 C44.7676741,1024 0,979.238276 0,924.008601 L0,99.9913987 C0,44.7676741 44.7617237,0 99.9913987,0 Z M1024,764 L1024,796 L0,796 L0,764 L1024,764 L1024,764 Z M1024,896 L1024,928 L0,928 L0,896 L1024,896 L1024,896 Z M892,512 L892,576 L128,576 L128,512 L892,512 L892,512 Z M768,384 L768,448 L128,448 L128,384 L768,384 L768,384 Z M640,256 L640,320 L128,320 L128,256 L640,256 L640,256 Z M128,128 L768,128 L768,192 L128,192 L128,128 L128,128 L128,128 Z"/>
</svg>
