<svg xmlns="http://www.w3.org/2000/svg" viewBox="0 0 1024 1024"><g fill="none" fill-rule="evenodd"><path fill="#141D27" d="M99.99 0h824.02C979.23 0 1024 44.762 1024 99.99v824.02c0 55.222-44.762 99.99-99.99 99.99H99.99C44.77 1024 0 979.238 0 924.01V99.99C0 44.77 44.762 0 99.99 0zM1024 764v32H0v-32h1024zm0 132v32H0v-32h1024z"/><path fill="#FFBC54" d="M128 128h640v64H128z"/><path fill="#E3C399" d="M128 256h512v64H128zM128 384h640v64H128zM128 512h764v64H128z"/><path fill="#E3C399" d="M128 512h764v64H128z"/></g></svg>
