<svg xmlns="http://www.w3.org/2000/svg" viewBox="0 0 1024 1024">
  <g fill="none" fill-rule="evenodd">
    <path fill="#6D6761" d="M0 687h1024v236H0z"/>
    <path fill="#938E85" d="M1024 878v79.114c0 36.94-44.555 66.886-99.51 66.886H99.51C44.55 1024 0 994.054 0 957.114V878h1024z"/>
    <path fill="#26211F" d="M99.51 0h824.98C979.45 0 1024 40.402 1024 90.233V730H0V90.233C0 40.4 44.555 0 99.51 0z"/>
    <path fill="#82C0D6" d="M146 146h584v56H146z"/>
    <path fill="#BAB8AA" d="M146 292h438v56H146zM146 438h584v56H146zM146 585h731v56H146z"/>
  </g>
</svg>
