<svg xmlns="http://www.w3.org/2000/svg" viewBox="0 0 1024 1024">
  <g fill="none" fill-rule="evenodd">
    <path fill="#6D6761" d="M0 576h1024v347H0z"/>
    <path fill="#26211F" d="M99.99 0h824.02C979.23 0 1024 44.762 1024 99.99V768H0V99.99C0 44.77 44.762 0 99.99 0z"/>
    <path fill="#938E85" d="M0 896h1024v28.01c0 55.222-44.762 99.99-99.99 99.99H99.99C44.77 1024 0 979.238 0 924.01V99.99 896z"/>
    <path fill="#938E85" d="M1024 896v69.36c0 32.386-44.555 58.64-99.51 58.64H99.51C44.55 1024 0 997.746 0 965.36V896h1024z"/>
    <path fill="#82C0D6" d="M128 128h640v64H128z"/>
    <path fill="#BAB8AA" d="M128 256h512v64H128zM128 384h640v64H128zM128 512h764v64H128z"/>
  </g>
</svg>
