<svg xmlns="http://www.w3.org/2000/svg" viewBox="0 0 1029 1029">
  <g fill="none" fill-rule="evenodd">
    <path fill="#6D6761" d="M0 690h1029v237H0z"/>
    <path fill="#938E85" d="M1029 882v79.656c0 37.193-44.773 67.344-99.995 67.344H99.995C44.77 1029 0 998.85 0 961.656V882h1029z"/>
    <path fill="#26211F" d="M99.995 0h829.01C984.23 0 1029 40.68 1029 90.85V735H0V90.85C0 40.676 44.773 0 99.995 0z"/>
    <path fill="#82C0D6" d="M147 147h588v56H147z"/>
    <path fill="#BAB8AA" d="M147 294h441v56H147zM147 441h588v56H147zM147 588h735v56H147z"/>
    <path fill="#BAB8AA" d="M147 588h735v56H147z"/>
  </g>
</svg>
